<?xml version="1.0" standalone="no"?>
<!DOCTYPE svg PUBLIC "-//W3C//DTD SVG 20010904//EN"
 "http://www.w3.org/TR/2001/REC-SVG-20010904/DTD/svg10.dtd">
<svg version="1.0" xmlns="http://www.w3.org/2000/svg"
 width="192.000000pt" height="192.000000pt" viewBox="0 0 192.000000 192.000000"
 preserveAspectRatio="xMidYMid meet">

<g transform="translate(0.000000,192.000000) scale(0.100000,-0.100000)"
fill="#000000" stroke="none">
<path d="M115 1901 c-48 -22 -79 -54 -100 -103 -13 -33 -15 -138 -15 -840 0
-759 1 -805 19 -843 22 -48 54 -79 103 -100 33 -13 138 -15 840 -15 759 0 805
1 843 19 48 22 79 54 100 103 13 33 15 138 15 838 0 700 -2 805 -15 838 -21
49 -52 81 -100 103 -38 18 -83 19 -845 19 -762 0 -807 -1 -845 -19z m711 -836
c111 -443 93 -406 197 -409 l52 -1 45 82 c25 45 47 83 50 83 3 0 13 -22 23
-50 38 -108 122 -180 210 -180 97 0 167 56 167 135 0 74 -43 107 -255 197 -81
34 -111 53 -156 98 -48 48 -58 64 -68 112 -33 156 75 275 259 286 95 5 164 -9
250 -54 l65 -34 73 51 c40 28 75 49 78 47 5 -5 -161 -327 -177 -342 -5 -6 -9
7 -9 35 0 24 -3 67 -6 95 -6 48 -9 53 -48 72 -66 33 -165 48 -220 32 -66 -18
-100 -60 -93 -117 2 -23 12 -54 21 -68 20 -31 104 -73 216 -110 47 -15 97 -34
112 -42 79 -39 148 -139 148 -213 0 -51 -18 -110 -47 -152 -91 -134 -338 -158
-500 -48 -26 18 -53 33 -58 33 -6 0 -46 -24 -90 -53 l-78 -53 37 67 c20 36 35
66 32 66 -3 0 -78 -31 -167 -70 -89 -38 -164 -69 -165 -67 -2 1 23 36 56 77
l58 74 -23 60 c-13 34 -29 76 -37 95 l-13 34 -119 -7 c-66 -3 -142 -6 -170 -6
l-51 0 -35 -99 -34 -99 58 -77 c32 -42 56 -78 54 -80 -1 -1 -83 29 -181 68
-186 72 -201 86 -102 88 93 2 96 5 126 102 l27 88 -22 9 c-20 7 -56 49 -56 65
0 3 17 5 38 5 21 0 45 6 54 13 13 10 39 91 124 378 3 12 -10 24 -48 44 -71 36
-76 43 -42 51 16 4 94 24 174 45 80 20 150 38 156 38 7 1 51 -158 110 -394z"/>
<path d="M572 1240 c-55 -149 -113 -322 -109 -326 4 -4 130 8 218 22 l37 5
-58 143 c-31 78 -62 151 -68 162 -10 18 -11 18 -20 -6z"/>
</g>
</svg>
