<?xml version="1.0" standalone="no"?>
<!DOCTYPE svg PUBLIC "-//W3C//DTD SVG 20010904//EN"
 "http://www.w3.org/TR/2001/REC-SVG-20010904/DTD/svg10.dtd">
<svg version="1.0" xmlns="http://www.w3.org/2000/svg"
 width="16.000000pt" height="16.000000pt" viewBox="0 0 16.000000 16.000000"
 preserveAspectRatio="xMidYMid meet">

<g transform="translate(0.000000,16.000000) scale(0.100000,-0.100000)"
fill="#000000" stroke="none">
<path d="M4 147 c-3 -8 -4 -43 -2 -78 l3 -64 75 0 75 0 0 75 0 75 -73 3 c-55
2 -74 -1 -78 -11z m60 -43 c10 -26 7 -34 -14 -34 -11 0 -20 4 -20 10 0 5 8 7
18 3 14 -5 15 -3 5 8 -7 7 -13 17 -13 21 0 14 18 8 24 -8z m71 6 c3 -6 -1 -7
-9 -4 -23 9 -19 -9 5 -24 16 -11 18 -16 9 -28 -7 -8 -18 -14 -24 -14 -6 0 -4
4 3 9 12 8 11 13 -9 29 -13 11 -20 24 -16 30 9 15 33 16 41 2z"/>
</g>
</svg>
